PathFileType	4	(X/Y/Z)	s08c0403.trc
DataRate	CameraRate	NumFrames	NumMarkers	Units	OrigDataRate	OrigDataStartFrame	OrigNumFrames
200	200	4	50	mm	200	1000	2000
Frame#	Time	racr			lacr			c7			jug			rlel			rdr			llel			ldr			s2			lic			ric			lasi			rasi			rpsi			lpsi			rgt			lgt			rth1			rth2			rth3			rth4			rlfc			rmfc			rsh1			rsh2			rsh3			rsh4			rlmal			rmmal			rcal			rtoe			rmt5			lth1			lth2			lth4			lth3			llfc			lmfc			llmal			lmmal			lcal			lmt5			lsh1			lsh2			lsh3			lsh4			ltoe			SBIKE			LBIKE			RBIKE			
		X1	Y1	Z1	X2	Y2	Z2	X3	Y3	Z3	X4	Y4	Z4	X5	Y5	Z5	X6	Y6	Z6	X7	Y7	Z7	X8	Y8	Z8	X9	Y9	Z9	X10	Y10	Z10	X11	Y11	Z11	X12	Y12	Z12	X13	Y13	Z13	X14	Y14	Z14	X15	Y15	Z15	X16	Y16	Z16	X17	Y17	Z17	X18	Y18	Z18	X19	Y19	Z19	X20	Y20	Z20	X21	Y21	Z21	X22	Y22	Z22	X23	Y23	Z23	X24	Y24	Z24	X25	Y25	Z25	X26	Y26	Z26	X27	Y27	Z27	X28	Y28	Z28	X29	Y29	Z29	X30	Y30	Z30	X31	Y31	Z31	X32	Y32	Z32	X33	Y33	Z33	X34	Y34	Z34	X35	Y35	Z35	X36	Y36	Z36	X37	Y37	Z37	X38	Y38	Z38	X39	Y39	Z39	X40	Y40	Z40	X41	Y41	Z41	X42	Y42	Z42	X43	Y43	Z43	X44	Y44	Z44	X45	Y45	Z45	X46	Y46	Z46	X47	Y47	Z47	X48	Y48	Z48	X49	Y49	Z49	X50	Y50	Z50	
1000	5.0000	833.532069	1351.522444	-73.184901	793.202943	1374.426452	-420.234465	811.932217	1430.986601	-228.856420	735.843052	1290.102624	-239.394232	694.341966	1164.652833	107.222813	759.723958	938.899337	-46.884025	641.417925	1160.587576	-532.514977	762.521124	928.228729	-441.952626	239.584919	1269.982383	-280.649431	417.814023	1256.792361	-401.156013	372.353304	1246.234768	-88.734741	427.423497	1201.223302	-357.784877	391.843184	1191.992721	-122.787809	270.079549	1301.903223	-219.221528	283.975974	1310.483901	-315.268466	272.162513	1140.198402	-85.280113	365.199815	1135.667852	-444.445569	348.218689	981.343398	-63.291206	403.268266	911.920445	-57.661558	418.027843	826.660297	-67.245061	437.435559	926.962280	-58.043659	467.178135	719.023752	-72.433867	459.271907	705.208357	-182.319329	397.427607	605.527200	-42.336818	396.944148	516.575822	-56.191533	352.796070	442.624782	-63.158702	428.081414	511.511309	-82.261020	311.788276	327.499885	-69.516627	336.355513	344.910190	-156.227932	231.941070	311.675772	-118.512703	523.243836	245.862361	-102.952898	425.962043	230.791744	-41.253510	429.481560	1012.078350	-425.455359	483.554573	947.793825	-401.564730	509.860450	964.084608	-383.356154	500.196999	860.852787	-392.838572	510.079110	739.044261	-363.792793	474.210735	720.594289	-260.527105	144.816459	531.894848	-408.130861	170.020212	521.849962	-320.020271	91.946024	574.273984	-368.635337	139.992450	363.334443	-419.047269	406.595796	669.027935	-398.322076	342.495304	614.687766	-390.200073	257.791532	589.378766	-399.347200	350.114712	595.527837	-351.121012	203.820277	308.035669	-347.044752	-199.376255	921.408765	-228.997139	-8.877598	80.615630	-427.358020	-9.066879	80.189167	-28.946174	
1001	5.0050	833.062694	1354.273377	-75.194532	793.174841	1374.146243	-424.080561	811.584321	1433.037951	-232.885325	735.542106	1292.078283	-242.360469	693.857659	1166.461363	104.331827	760.119176	938.891245	-46.780595	638.926793	1159.593832	-533.759919	762.304455	928.167050	-441.463508	239.141220	1267.970153	-277.029362	415.450998	1256.860920	-399.928343	374.766335	1243.742585	-86.945860	426.265226	1201.403246	-356.627105	393.957524	1189.570059	-121.700079	270.186107	1299.494729	-215.804931	282.417783	1309.526197	-311.853873	273.766300	1136.039515	-83.824805	363.906858	1135.976160	-442.924595	346.624183	976.269230	-63.284789	399.884953	905.479507	-58.527410	412.511433	819.931123	-68.237704	434.425356	919.667029	-59.272330	459.292541	711.731560	-74.956660	449.735329	698.030417	-184.210731	390.282904	598.052108	-43.214880	390.832527	509.057761	-57.038857	347.532072	434.542758	-63.362043	421.771074	504.173113	-83.390275	307.667651	319.202132	-68.737138	331.638890	336.263433	-155.957932	227.675710	304.202591	-117.511355	518.380058	234.921604	-103.653339	421.243528	221.071324	-41.366093	430.500369	1013.236413	-424.208909	486.136296	950.460882	-400.099612	512.479721	967.438468	-380.923150	504.977411	864.028781	-391.015699	517.442877	743.517852	-360.575975	482.091111	725.179497	-256.926942	149.763264	541.273227	-407.249352	174.599868	531.115867	-319.044535	96.203896	583.671312	-368.166514	145.642979	373.115760	-419.085029	413.474451	674.867276	-395.626010	348.515329	621.508669	-388.082792	263.480208	597.389017	-397.620897	357.042502	604.502841	-353.059957	209.490341	317.862274	-347.040132	-199.395415	921.501256	-228.593473	-8.886983	80.607893	-427.361950	-9.075659	80.170085	-28.950146	
1002	5.0100	832.611384	1357.029168	-77.700745	793.119082	1373.850188	-428.154860	811.232813	1434.998685	-237.058102	735.293978	1293.944763	-245.533070	693.426566	1168.397427	101.329332	760.533967	938.884385	-46.721958	636.717242	1158.273222	-535.015364	762.000024	928.328903	-440.840749	238.626652	1266.255328	-272.941594	413.053174	1256.973880	-398.319340	377.483086	1241.205674	-85.209634	425.056629	1201.430697	-355.611384	396.199136	1186.939897	-120.579119	270.298517	1296.995659	-212.064460	281.234979	1308.221107	-307.911818	275.653510	1132.094326	-82.159610	362.279257	1136.370079	-441.352369	344.892717	971.694702	-62.953885	396.290907	899.450004	-59.347377	406.283649	813.787369	-69.712050	431.137887	912.772970	-60.476904	451.051482	704.779212	-76.947494	439.544643	691.126122	-185.860053	382.984529	590.718164	-44.049973	384.303631	501.763429	-57.519360	341.756802	426.787462	-63.414171	414.929834	497.052338	-84.221019	302.964995	311.238587	-67.863923	326.174258	327.920073	-155.496283	222.865780	297.040023	-116.336019	512.898497	224.387967	-104.313174	415.893842	211.697037	-41.407157	431.216404	1014.713004	-422.848612	488.598103	953.617425	-398.783046	514.354269	971.047830	-378.581375	509.835815	867.559238	-389.327493	524.392524	748.011633	-357.653662	490.257275	729.805924	-253.555496	154.762703	550.538346	-406.241863	179.931447	540.276789	-317.398396	100.683034	592.660775	-367.647236	151.909556	382.708167	-419.416550	420.053910	680.794156	-392.388488	354.446766	628.045521	-385.802790	269.249464	605.352207	-395.879577	362.600608	610.898731	-350.776221	215.890281	327.688672	-347.034733	-199.452819	921.450705	-228.664560	-8.978591	80.454089	-427.296831	-9.095901	80.167004	-28.956720	
1003	5.0150	832.335958	1359.890000	-80.260849	793.088327	1373.318809	-432.087057	810.912140	1436.925166	-241.456003	735.183689	1295.717790	-248.760805	693.058116	1170.458141	98.236271	760.928014	938.842325	-46.653473	635.028348	1156.686539	-535.726184	761.662237	928.410187	-440.364671	238.129649	1264.780893	-268.695417	410.476731	1257.108477	-396.891383	380.444698	1238.808988	-83.492929	423.707018	1201.664209	-354.487044	398.569141	1184.095998	-119.426330	270.602537	1294.732659	-208.495563	280.062501	1306.931910	-303.627567	277.663625	1128.470994	-80.407229	360.279556	1136.808230	-439.204274	342.978508	967.740973	-62.405737	392.659684	894.260712	-59.804893	400.384002	808.103829	-71.108249	427.627587	906.406069	-61.512089	442.248805	698.213407	-78.790898	428.129687	684.950246	-187.359767	375.430018	583.777003	-44.813011	377.323541	494.909484	-57.989788	335.538332	419.387140	-63.312981	407.663896	490.319945	-85.200218	297.607820	303.718187	-66.936917	320.238135	320.057194	-154.979137	217.611790	290.444973	-115.043274	507.058494	214.386174	-104.609083	410.080862	202.667189	-41.422715	431.841234	1016.434240	-421.139442	490.924810	957.057216	-396.820947	515.953637	975.218105	-376.417073	514.687588	871.749746	-387.544667	531.092224	752.787874	-355.079662	497.894616	733.826095	-250.938685	160.044105	559.436197	-405.175097	184.296958	548.800136	-317.224904	105.180663	601.287219	-367.002347	158.565781	391.973390	-419.394101	426.484091	686.815590	-390.066975	360.483610	635.009824	-383.913221	275.047224	613.290367	-394.285369	368.300537	617.291327	-348.962510	222.891143	337.541053	-347.151033	-199.481455	921.412815	-228.701500	-8.959582	80.488948	-427.273745	-9.104833	80.160251	-28.951062	
